<?xml version="1.0" encoding="UTF-8"?>
<svg id="Layer_2" xmlns="http://www.w3.org/2000/svg" viewBox="0 0 497.41 73.6">
  <defs>
    <style>
      .cls-1 {
        fill: #67ecbc;
        stroke-miterlimit: 10;
        stroke-width: 3.01px;
      }

      .cls-1, .cls-2 {
        stroke: #161d33;
        stroke-linecap: round;
      }

      .cls-3 {
        fill: #161d33;
      }

      .cls-2 {
        fill: none;
        stroke-linejoin: round;
        stroke-width: 5.4px;
      }

      .cls-4 {
        fill: #8a5fb1;
      }

      .cls-5 {
        fill: #fdfdfd;
      }
    </style>
  </defs>
  <g id="Layer_2-2" data-name="Layer_2">
    <g>
      <g>
        <rect class="cls-4" x="4.76" y="6.54" width="50.82" height="65.47" rx="19.22" ry="19.22"/>
        <rect class="cls-1" x="1.51" y="1.51" width="50.82" height="65.95" rx="19.22" ry="19.22"/>
        <g>
          <path class="cls-3" d="M46.76,38.37c-3.31-.8-6.62-.66-9.92-.72-.84-.02-1.75-.02-2.68-.03,3.73-3.63,7.49-7.2,10.38-11.6,1.31-1.98-1.09-4.41-3.09-3.09-4.07,2.68-7.43,6.1-10.79,9.55.01-.37.03-.74.04-1.11.14-6.68.22-13.3-1.6-19.85-.59-2.17-3.77-2.19-4.37,0-1.82,6.55-1.74,13.16-1.6,19.85,0,.03,0,.06,0,.08-3.23-3.33-6.63-6.48-10.56-9.04-.7-.43-1.62-.47-2.37,0-1.05.65-1.38,2.04-.72,3.09,1.54,2.48,3.38,4.66,5.31,6.74,1.8,1.87,3.65,3.69,5.52,5.49-1.16.02-2.28.04-3.32.06-3.31.06-6.62.06-9.92.57-.93.14-1.71.87-1.85,1.85-.18,1.21.65,2.34,1.85,2.52,3.31.5,6.62.51,9.92.57,1.1.02,2.29.04,3.54.06-.9,1.04-1.79,2.08-2.67,3.15-1.67,2.03,1.05,4.76,3.09,3.09,1.08-.89,2.14-1.79,3.19-2.71.17,1.46.36,2.9.59,4.31.39,2.43,3.97,2.45,4.37,0,.26-1.57.47-3.18.65-4.81,1.26,1.09,2.53,2.16,3.84,3.2.78.63,1.92.65,2.74,0,.95-.76,1.11-2.14.35-3.09-.82-1.03-1.66-2.03-2.51-3.03.93,0,1.83-.02,2.66-.03,3.31-.06,6.62.08,9.92-.72.79-.19,1.45-.81,1.66-1.66.29-1.21-.45-2.42-1.66-2.72Z"/>
          <circle class="cls-3" cx="26.9" cy="57.13" r="2.6"/>
        </g>
      </g>
      <g>
        <path class="cls-2" d="M121.26,24.64c-.38,4.07-1.32,7.46-2.8,10.15-1.49,2.69-3.64,5.13-6.47,7.31l6.36,28.8h-20.18l-4.48-24.44h-2.51l-2.29,24.44h-18.33L76.9,3.15h25.31c7.27,0,12.44,1.71,15.5,5.13,3.06,3.42,4.24,8.88,3.54,16.37ZM99.28,33.37c.9-1.09,1.49-3.07,1.76-5.95s.05-4.87-.64-6c-.7-1.13-1.95-1.69-3.77-1.69h-2.95l-1.43,15.28h2.84c1.89,0,3.29-.55,4.19-1.64ZM159.18,70.9h-36.66l6.34-67.76h37.75l-2.65,16.69h-18l-.95,10.15h15.6l-1.35,14.4h-15.6l-1.05,11.24h19.09l-2.52,15.27ZM216.1,51.37c-1.22,13.02-8.81,19.53-22.78,19.53h-26.73l6.34-67.76h26.19c6.91,0,11.91,1.4,14.99,4.2,3.08,2.8,4.34,7.26,3.77,13.37-.57,6.11-3.52,10.77-8.84,13.97l-.06.65c5.53,2.26,7.91,7.6,7.12,16.04ZM196.33,30.64c.75-1.02,1.25-2.82,1.49-5.4s.07-4.4-.53-5.46c-.59-1.05-1.73-1.58-3.4-1.58h-3.49l-1.31,13.96h3.6c1.67,0,2.88-.51,3.63-1.53ZM194.65,57.32c.86-.98,1.43-3.02,1.72-6.11s.09-5.27-.59-6.55c-.68-1.27-2.08-1.91-4.19-1.91h-3.49l-1.5,16.04h3.49c2.18,0,3.7-.49,4.56-1.47ZM255.21,70.9h-36.66l6.34-67.76h37.75l-2.65,16.69h-18l-.95,10.15h15.6l-1.35,14.4h-15.6l-1.05,11.24h19.09l-2.52,15.27ZM297.11,70.9h-34.48l6.34-67.76h18.66l-4.92,52.59h16.91l-2.51,15.17ZM347.19,70.9h-34.48l6.34-67.76h18.66l-4.92,52.59h16.91l-2.51,15.17ZM388.87,70.9h-36.66l6.34-67.76h37.75l-2.65,16.69h-18l-.95,10.15h15.6l-1.35,14.4h-15.6l-1.05,11.24h19.09l-2.52,15.27ZM444.95,70.9h-18.22l-1.07-10.69h-12.87l-3.07,10.69h-17.35L411.14,3.15h27.71l6.1,67.76ZM424.78,47.44l-1.55-24.22h-.76l-6.08,24.22h8.4ZM492.06,19.84h-18l-.95,10.15h14.51l-1.35,14.4h-14.51l-2.48,26.51h-18.66l6.34-67.76h37.75l-2.65,16.69Z"/>
        <path class="cls-5" d="M121.26,24.64c-.38,4.07-1.32,7.46-2.8,10.15-1.49,2.69-3.64,5.13-6.47,7.31l6.36,28.8h-20.18l-4.48-24.44h-2.51l-2.29,24.44h-18.33L76.9,3.15h25.31c7.27,0,12.44,1.71,15.5,5.13,3.06,3.42,4.24,8.88,3.54,16.37ZM99.28,33.37c.9-1.09,1.49-3.07,1.76-5.95s.05-4.87-.64-6c-.7-1.13-1.95-1.69-3.77-1.69h-2.95l-1.43,15.28h2.84c1.89,0,3.29-.55,4.19-1.64ZM159.18,70.9h-36.66l6.34-67.76h37.75l-2.65,16.69h-18l-.95,10.15h15.6l-1.35,14.4h-15.6l-1.05,11.24h19.09l-2.52,15.27ZM216.1,51.37c-1.22,13.02-8.81,19.53-22.78,19.53h-26.73l6.34-67.76h26.19c6.91,0,11.91,1.4,14.99,4.2,3.08,2.8,4.34,7.26,3.77,13.37-.57,6.11-3.52,10.77-8.84,13.97l-.06.65c5.53,2.26,7.91,7.6,7.12,16.04ZM196.33,30.64c.75-1.02,1.25-2.82,1.49-5.4s.07-4.4-.53-5.46c-.59-1.05-1.73-1.58-3.4-1.58h-3.49l-1.31,13.96h3.6c1.67,0,2.88-.51,3.63-1.53ZM194.65,57.32c.86-.98,1.43-3.02,1.72-6.11s.09-5.27-.59-6.55c-.68-1.27-2.08-1.91-4.19-1.91h-3.49l-1.5,16.04h3.49c2.18,0,3.7-.49,4.56-1.47ZM255.21,70.9h-36.66l6.34-67.76h37.75l-2.65,16.69h-18l-.95,10.15h15.6l-1.35,14.4h-15.6l-1.05,11.24h19.09l-2.52,15.27ZM297.11,70.9h-34.48l6.34-67.76h18.66l-4.92,52.59h16.91l-2.51,15.17ZM347.19,70.9h-34.48l6.34-67.76h18.66l-4.92,52.59h16.91l-2.51,15.17ZM388.87,70.9h-36.66l6.34-67.76h37.75l-2.65,16.69h-18l-.95,10.15h15.6l-1.35,14.4h-15.6l-1.05,11.24h19.09l-2.52,15.27ZM444.95,70.9h-18.22l-1.07-10.69h-12.87l-3.07,10.69h-17.35L411.14,3.15h27.71l6.1,67.76ZM424.78,47.44l-1.55-24.22h-.76l-6.08,24.22h8.4ZM492.06,19.84h-18l-.95,10.15h14.51l-1.35,14.4h-14.51l-2.48,26.51h-18.66l6.34-67.76h37.75l-2.65,16.69Z"/>
      </g>
    </g>
  </g>
</svg>