<svg width="290" height="40" viewBox="0 0 290 40" fill="none" xmlns="http://www.w3.org/2000/svg">
<g clip-path="url(#clip0_357_1186)">
<path d="M20.7339 3.66809H13.8578C7.96205 3.66809 3.18262 8.44339 3.18262 14.334V29.334C3.18262 35.2246 7.96205 39.9999 13.8578 39.9999H20.7339C26.6296 39.9999 31.409 35.2246 31.409 29.334V14.334C31.409 8.44339 26.6296 3.66809 20.7339 3.66809Z" fill="#8A5FB1"/>
<path d="M18.9233 0.871277H12.0472C6.1515 0.871277 1.37207 5.64657 1.37207 11.5372V26.5372C1.37207 32.4278 6.1515 37.2031 12.0472 37.2031H18.9233C24.8191 37.2031 29.5985 32.4278 29.5985 26.5372V11.5372C29.5985 5.64657 24.8191 0.871277 18.9233 0.871277Z" fill="#67ECBC" stroke="#201A2B" stroke-width="1.72009" stroke-miterlimit="10" stroke-linecap="round"/>
<path d="M26.5103 21.3319C24.6719 20.8879 22.8334 20.9656 21.0006 20.9323C20.534 20.9212 20.0286 20.9212 19.512 20.9156C21.5837 18.9012 23.6721 16.9201 25.2773 14.4784C26.0049 13.3796 24.6719 12.0311 23.561 12.7636C21.3005 14.2508 19.4343 16.1487 17.5681 18.0633C17.5736 17.8579 17.5847 17.6526 17.5903 17.4473C17.668 13.7403 17.7125 10.0666 16.7016 6.43174C16.3739 5.22753 14.6077 5.21643 14.2744 6.43174C13.2636 10.0666 13.308 13.7347 13.3858 17.4473C13.3858 17.4639 13.3858 17.4806 13.3858 17.4917C11.5917 15.6437 9.70332 13.8957 7.52052 12.475C7.13173 12.2364 6.62074 12.2142 6.20418 12.475C5.62099 12.8357 5.4377 13.6071 5.80427 14.1898C6.65962 15.566 7.68159 16.7758 8.75355 17.9301C9.75331 18.9678 10.7808 19.9778 11.8195 20.9767C11.1752 20.9878 10.5531 20.9989 9.97547 21.01C8.13704 21.0433 6.2986 21.0433 4.46571 21.3263C3.94917 21.404 3.51595 21.8091 3.43819 22.3529C3.33821 23.0244 3.79921 23.6515 4.46571 23.7514C6.30415 24.0289 8.14259 24.0344 9.97547 24.0677C10.5864 24.0788 11.2474 24.0899 11.9417 24.101C11.4418 24.6781 10.9475 25.2553 10.4587 25.8491C9.53114 26.9756 11.0419 28.4906 12.1749 27.5638C12.7748 27.0699 13.3635 26.5705 13.9467 26.0599C14.0411 26.8701 14.1467 27.6693 14.2744 28.4517C14.491 29.8002 16.4794 29.8113 16.7016 28.4517C16.846 27.5805 16.9627 26.687 17.0626 25.7825C17.7625 26.3873 18.4678 26.9811 19.1954 27.5583C19.6287 27.9079 20.2618 27.919 20.7173 27.5583C21.2449 27.1365 21.3338 26.3707 20.9117 25.8435C20.4562 25.2719 19.9897 24.717 19.5176 24.162C20.0341 24.162 20.534 24.1509 20.995 24.1454C22.8334 24.1121 24.6719 24.1898 26.5048 23.7458C26.9435 23.6404 27.3101 23.2963 27.4268 22.8246C27.5878 22.1532 27.1768 21.4817 26.5048 21.3152L26.5103 21.3319Z" fill="#201A2B"/>
<path d="M15.4741 33.1854C16.2717 33.1854 16.9182 32.5394 16.9182 31.7425C16.9182 30.9457 16.2717 30.2997 15.4741 30.2997C14.6766 30.2997 14.03 30.9457 14.03 31.7425C14.03 32.5394 14.6766 33.1854 15.4741 33.1854Z" fill="#201A2B"/>
<path d="M76.3898 14.2897C76.1843 16.4928 75.6789 18.3241 74.8735 19.7836C74.0682 21.2431 72.9018 22.5583 71.3688 23.7403L74.818 39.3341H63.8818L61.4546 26.1044H60.0938L58.8552 39.3341H48.9243L52.3568 2.6582H66.0701C70.008 2.6582 72.8129 3.58495 74.4681 5.43289C76.1288 7.28639 76.7675 10.2387 76.3898 14.2897ZM64.4816 19.0122C64.9704 18.424 65.287 17.3474 65.4314 15.7936C65.5758 14.2398 65.4592 13.1576 65.087 12.5472C64.7093 11.9368 64.0317 11.6316 63.0431 11.6316H61.449L60.677 19.9002H62.2155C63.2375 19.9002 63.9984 19.606 64.4872 19.0122H64.4816ZM96.9292 39.3286H77.0674L80.4999 2.65265H100.95L99.5119 11.6871H89.7588L89.2422 17.181H97.6957L96.9681 24.9778H88.5146L87.9425 31.06H98.29L96.9237 39.3286H96.9292ZM127.772 28.757C127.111 35.8047 123.001 39.3286 115.43 39.3286H100.945L104.377 2.65265H118.563C122.306 2.65265 125.011 3.41292 126.683 4.9279C128.355 6.44288 129.032 8.85687 128.727 12.1643C128.421 15.4717 126.822 17.9912 123.939 19.7226L123.906 20.0777C126.905 21.2986 128.188 24.1954 127.761 28.757H127.772ZM117.058 17.5361C117.463 16.9867 117.73 16.01 117.863 14.6116C117.996 13.2131 117.896 12.2309 117.58 11.6593C117.258 11.0877 116.647 10.8047 115.741 10.8047H113.847L113.142 18.363H115.091C115.997 18.363 116.652 18.0855 117.063 17.5361H117.058ZM116.147 31.9756C116.608 31.4429 116.919 30.3441 117.074 28.6682C117.23 26.9923 117.124 25.8158 116.758 25.1221C116.386 24.434 115.63 24.0899 114.492 24.0899H112.598L111.787 32.7692H113.681C114.864 32.7692 115.686 32.5028 116.147 31.9701V31.9756ZM148.961 39.3286H129.099L132.532 2.65265H152.982L151.544 11.6871H141.79L141.274 17.181H149.727L149 24.9778H140.546L139.974 31.06H150.322L148.955 39.3286H148.961ZM171.655 39.3286H152.977L156.409 2.65265H166.518L163.852 31.121H173.016L171.655 39.3286ZM198.793 39.3286H180.114L183.547 2.65265H193.656L190.989 31.121H200.154L198.793 39.3286ZM221.376 39.3286H201.515L204.947 2.65265H225.398L223.959 11.6871H214.206L213.689 17.181H222.143L221.415 24.9778H212.962L212.39 31.06H222.737L221.371 39.3286H221.376ZM251.758 39.3286H241.888L241.305 33.5406H234.329L232.663 39.3286H223.265L233.44 2.65265H248.453L251.758 39.3286ZM240.827 26.6316L239.989 13.5184H239.572L236.273 26.6316H240.827ZM277.279 11.6926H267.526L267.01 17.1865H274.869L274.141 24.9834H266.282L264.938 39.3341H254.829L258.262 2.6582H278.712L277.274 11.6926H277.279Z" fill="#FEFEFE"/>
</g>
<defs>
<clipPath id="clip0_357_1186">
<rect width="289" height="40" fill="white" transform="translate(0.5)"/>
</clipPath>
</defs>
</svg>
